<svg width="507" height="757" viewBox="0 0 507 757" fill="none" xmlns="http://www.w3.org/2000/svg">
<g clip-path="url(#clip0_11_890)">
<path opacity="0.1" d="M179.19 734.273C272.172 734.273 347.549 724.995 347.549 713.551C347.549 702.106 272.172 692.828 179.19 692.828C86.2084 692.828 10.8316 702.106 10.8316 713.551C10.8316 724.995 86.2084 734.273 179.19 734.273Z" fill="black"/>
<path d="M178.483 728.556C266.386 728.556 337.646 651.775 337.646 557.061C337.646 462.346 266.386 385.565 178.483 385.565C90.5799 385.565 19.3203 462.346 19.3203 557.061C19.3203 651.775 90.5799 728.556 178.483 728.556Z" fill="#3F3D56"/>
<path d="M228.708 658.529H129.673V749.993H228.708V658.529Z" fill="#43A691"/>
<path d="M358.16 680.681L352.501 712.122L389.285 717.838L413.336 703.547L411.921 680.681H358.16Z" fill="#575A89"/>
<path d="M172.824 90.4496C172.824 90.4496 169.994 123.32 162.92 124.749C155.846 126.178 178.483 183.343 178.483 183.343H212.438L239.318 176.197L226.585 144.757C226.585 144.757 209.608 121.89 222.341 103.312C235.074 84.733 172.824 90.4496 172.824 90.4496Z" fill="#A0616A"/>
<path opacity="0.1" d="M172.824 90.4496C172.824 90.4496 169.994 123.32 162.92 124.749C155.846 126.178 178.483 183.343 178.483 183.343H212.438L239.318 176.197L226.585 144.757C226.585 144.757 209.608 121.89 222.341 103.312C235.074 84.733 172.824 90.4496 172.824 90.4496Z" fill="black"/>
<path d="M102.085 341.977C102.085 341.977 65.3006 413.433 95.011 427.724C124.721 442.016 131.795 440.587 131.795 444.874C131.795 449.161 126.136 447.732 128.966 454.878C131.795 462.024 123.307 490.606 131.795 507.756C140.284 524.905 137.454 537.767 137.454 537.767C137.454 537.767 137.454 539.197 140.284 544.913C143.113 550.63 144.528 554.917 143.113 557.775C141.699 560.634 133.21 579.212 141.699 583.5C150.187 587.787 194.045 590.645 198.29 583.5C202.534 576.354 194.045 572.067 198.29 567.779C202.534 563.492 205.364 562.063 202.534 559.204C199.705 556.346 196.875 520.618 196.875 520.618C196.875 520.618 203.949 479.173 201.119 473.457C198.29 467.74 194.045 462.024 196.875 457.736C199.705 453.449 202.534 454.878 203.949 449.161C205.364 443.445 208.193 430.583 208.193 430.583L223.756 429.154L260.54 436.299C260.54 436.299 301.569 482.031 346.842 496.323C346.842 496.323 359.575 509.185 363.819 509.185C368.063 509.185 368.063 509.185 366.648 512.043C365.234 514.901 360.989 514.901 363.819 517.76C366.648 520.618 370.893 516.33 368.063 520.618C365.234 524.905 362.404 524.905 365.234 527.764C368.063 530.622 363.819 546.342 363.819 547.771C363.819 549.201 351.086 683.539 355.33 686.397C359.575 689.255 418.995 697.83 423.24 686.397C427.484 674.964 420.41 660.673 420.41 660.673C420.41 660.673 441.632 489.177 435.973 477.744C430.314 466.311 410.507 414.862 304.398 381.992C304.398 381.992 274.688 376.276 274.688 371.988C274.688 367.701 271.858 340.547 266.199 339.118C260.54 337.689 228 336.26 228 336.26L186.972 349.122L130.38 339.118L102.085 341.977Z" fill="#2F2E41"/>
<path d="M151.602 582.071L144.528 607.795C144.528 607.795 138.869 649.24 145.943 659.244C151.499 667.101 161.42 676.723 179.819 678.411C184.975 678.889 190.139 677.575 194.455 674.686C198.772 671.797 201.983 667.506 203.557 662.523C203.768 661.926 203.9 661.304 203.949 660.673C203.949 657.814 199.705 623.515 199.705 623.515L192.631 587.787L191.216 577.783L151.602 582.071Z" fill="#2F2E41"/>
<path d="M358.16 704.976C358.16 704.976 351.086 697.83 349.671 704.976C348.256 712.121 342.597 742.133 352.501 743.562C362.404 744.991 457.194 759.283 467.098 753.566C477.001 747.85 495.393 739.275 484.075 734.988C472.757 730.7 440.217 717.838 440.217 717.838C440.217 717.838 421.825 693.543 418.995 692.114C416.166 690.685 400.603 693.543 393.529 699.259C386.455 704.976 358.16 704.976 358.16 704.976Z" fill="#2F2E41"/>
<path d="M206.778 120.461C231.001 120.461 250.637 100.626 250.637 76.1583C250.637 51.6904 231.001 31.8552 206.778 31.8552C182.556 31.8552 162.92 51.6904 162.92 76.1583C162.92 100.626 182.556 120.461 206.778 120.461Z" fill="#A0616A"/>
<path d="M202.534 176.197L185.557 157.619L166.738 120.461C166.738 120.461 153.017 116.174 150.187 123.32C147.358 130.465 96.4257 153.331 96.4257 153.331C96.4257 153.331 109.159 273.378 103.5 284.811C97.8405 296.244 87.9371 341.977 96.4257 346.264C104.914 350.551 144.528 346.264 157.261 351.981C169.994 357.697 206.778 357.697 216.682 350.551C226.585 343.406 229.415 337.689 239.318 341.977C247.749 345.627 267.459 220.842 273.134 183.656C273.612 180.533 273.215 177.337 271.988 174.43C270.761 171.523 268.752 169.021 266.19 167.207C253.496 158.212 230.633 142.712 226.585 144.757C220.926 147.615 202.534 176.197 202.534 176.197Z" fill="#575A89"/>
<path d="M263.37 170.481C266.692 171.32 269.68 173.166 271.934 175.77C274.188 178.375 275.598 181.614 275.976 185.052L287.421 289.099C287.421 289.099 259.125 350.551 244.978 309.107C230.83 267.662 263.37 170.481 263.37 170.481Z" fill="#575A89"/>
<path d="M260.54 299.103L291.665 290.528C291.665 290.528 297.324 330.544 302.983 330.544C308.643 330.544 283.177 353.41 270.444 350.551C257.711 347.693 239.318 337.689 237.904 330.544C236.489 323.398 250.637 293.386 250.637 293.386L260.54 299.103Z" fill="#575A89"/>
<path d="M173.67 95.27C176.652 88.6274 176.135 80.8791 178.6 74.0238C179.92 70.353 182.063 67.0402 184.86 64.3443C187.658 61.6484 191.034 59.6422 194.726 58.4826C198.418 57.323 202.325 57.0413 206.143 57.6596C209.961 58.2778 213.585 59.7793 216.733 62.0466C219.905 64.331 223.084 67.5405 226.956 67.1043C231.124 66.6347 234.843 61.9367 238.676 63.6585C242.924 65.5668 241.777 73.2576 246.081 75.034C248.346 75.969 251.023 74.5293 252.33 72.4391C253.473 70.2425 254.095 67.8082 254.149 65.3274C254.743 59.2321 255.28 52.7811 252.663 47.2562C251.562 45.3835 250.603 43.4296 249.793 41.4111C249.335 39.5262 249.152 37.5839 249.248 35.6455C249.224 28.4811 248.706 21.0081 245.137 14.8171C241.176 7.94708 233.855 3.55408 226.216 1.63723C218.578 -0.279619 210.576 0.0142947 202.734 0.684929C189.77 1.79356 176.25 4.16997 166.037 12.3109C164.648 13.3353 163.453 14.6034 162.509 16.0546C161.612 17.7785 160.979 19.6294 160.63 21.5445C158.422 30.6283 155.111 39.4016 150.772 47.665C148.686 51.1681 146.98 54.8891 145.686 58.7628C144.602 62.6993 144.676 67.1853 146.943 70.5687C148.789 73.3232 151.74 74.7912 154.059 77.0432C156.356 79.2748 157.431 83.5663 159.976 85.2561C162.197 86.7311 164.859 85.6899 167.125 87.2533C170.034 89.2606 170.244 93.6618 173.67 95.27Z" fill="#2F2E41"/>
<path d="M209.608 197.634L213.852 189.06C213.852 189.06 276.103 207.638 288.836 224.788C288.836 224.788 319.961 204.78 336.938 207.638L353.915 210.497L301.569 257.658L235.074 251.941L209.608 197.634Z" fill="#F2F2F2"/>
<path d="M206.778 189.06L148.772 270.52L232.244 311.965C232.244 311.965 240.048 316.252 246.05 311.965L301.569 286.241L353.915 210.497L301.569 237.65C301.569 237.65 295.91 226.217 284.591 231.934L206.778 189.06Z" fill="#43A691"/>
<path d="M295.909 333.402L307.228 303.39C307.228 303.39 332.694 270.52 318.546 254.8C304.398 239.079 288.836 300.532 288.836 300.532L295.909 333.402Z" fill="#A0616A"/>
<path d="M165.322 328.613L190.019 308.387C190.019 308.387 228.374 292.86 223.943 272.091C219.513 251.322 175.529 296.594 175.529 296.594L165.322 328.613Z" fill="#A0616A"/>
<path opacity="0.1" d="M104.207 184.058H102.792C102.792 184.058 80.8631 157.619 76.6188 193.347C72.3744 229.075 58.2267 347.693 95.0109 351.981C131.795 356.268 157.969 334.116 157.969 334.116C157.969 334.116 184.849 292.672 174.946 292.672C170.154 292.672 157.122 290.498 145.236 291.242C132.555 292.037 121.161 295.645 121.892 291.957C123.306 284.811 143.821 194.062 104.207 184.058Z" fill="black"/>
<path d="M102.085 156.19L96.4257 153.331C96.4257 153.331 73.7892 157.619 69.5449 193.347C65.3005 229.075 51.1527 347.693 87.937 351.981C124.721 356.268 174.238 346.264 174.238 346.264C174.238 346.264 184.142 291.957 174.238 291.957C164.335 291.957 113.403 299.103 114.818 291.957C116.233 284.811 141.699 166.194 102.085 156.19Z" fill="#575A89"/>
<path d="M275.395 316.967L290.996 292.814L300.861 332.688L275.395 344.121V316.967Z" fill="#575A89"/>
<path d="M0.182724 221.215H-90.3631V312.679H0.182724V221.215Z" fill="#F2F2F2"/>
</g>
<defs>
<clipPath id="clip0_11_890">
<rect width="507" height="757" fill="white"/>
</clipPath>
</defs>
</svg>
