<svg width="442" height="756" viewBox="0 0 442 756" fill="none" xmlns="http://www.w3.org/2000/svg">
<g clip-path="url(#clip0_11_1272)">
<path d="M213.797 566.049H-654.128V569.24H213.797V566.049Z" fill="#3F3D56"/>
<path d="M290.469 0H-703.885V501.599H290.469V0Z" fill="#3F3D56"/>
<path opacity="0.1" d="M290.469 38.5845V24.8043H259.894V0H246.6V24.8043H-660.016V0H-673.31V24.8043H-703.885V38.5845H-673.31V463.014H-703.885V476.794H-673.31V501.599H-660.016V476.794H246.6V501.599H259.894V476.794H290.469V463.014H259.894V38.5845H290.469ZM246.6 463.014H-660.016V38.5845H246.6L246.6 463.014Z" fill="black"/>
<path d="M19.6587 164.384L133.206 173.032L165.317 175.478L163.323 173.411L169.353 263.834L172.369 309.046C172.491 310.873 172.616 312.699 172.734 314.526C172.833 316.045 173.236 317.508 171.501 317.883C168.05 318.628 164.456 318.939 160.96 319.396C153.854 320.326 146.731 321.108 139.592 321.743C111.031 324.285 82.3195 324.471 53.7293 322.301C46.5855 321.759 39.4541 321.069 32.335 320.231C29.6874 319.919 26.4013 319.802 25.4345 316.725C24.4376 313.552 24.2664 309.944 23.8158 306.652C21.8082 291.984 20.44 277.24 19.7114 262.422C18.2277 232.888 19.2373 203.277 22.7285 173.926C23.1565 170.332 23.6238 166.743 24.1305 163.16C24.4967 160.557 20.6546 159.434 20.285 162.061C15.9982 192.392 14.3493 223.061 15.3583 253.698C15.8734 269.026 17.057 284.308 18.9093 299.546C19.378 303.394 19.8868 307.237 20.4358 311.075C20.8735 314.128 20.9813 317.729 22.7345 320.353C24.4259 322.884 27.2663 323.697 30.0576 324.082C33.6104 324.573 37.1866 324.925 40.7534 325.286C70.3668 328.279 100.168 328.736 129.854 326.652C137.325 326.127 144.784 325.442 152.23 324.597C155.898 324.18 159.561 323.724 163.221 323.229C165.012 322.987 166.802 322.737 168.591 322.478C170.261 322.355 171.914 322.057 173.526 321.587C176.886 320.331 176.885 316.972 176.677 313.841L175.9 302.196L174.347 278.905L168.088 185.056L167.311 173.411C167.296 172.868 167.081 172.351 166.711 171.966C166.34 171.582 165.841 171.359 165.317 171.344L51.7697 162.696L19.6587 160.25C17.0983 160.055 17.1102 164.19 19.6587 164.384V164.384Z" fill="#D0CDE1"/>
<path d="M68.3186 213.189C68.8919 211.611 67.4503 215.01 68.1743 213.506C68.3667 213.107 68.5465 212.703 68.7505 212.309C69.1568 211.526 69.6069 210.768 70.0984 210.039C70.5878 209.312 71.3314 209.032 69.8841 210.296C70.1838 209.978 70.4643 209.641 70.7239 209.287C71.3995 208.519 72.1198 207.795 72.8808 207.119C73.4275 206.633 74.4624 206.219 72.6108 207.296C72.9769 207.083 73.3167 206.764 73.6664 206.52C74.3837 206.02 75.1235 205.558 75.8858 205.132C76.2668 204.92 76.6525 204.717 77.043 204.523C77.7062 204.195 78.8106 204.082 76.7227 204.635C77.619 204.398 78.4862 203.958 79.3826 203.694C80.1443 203.47 80.9145 203.282 81.6931 203.128C82.3886 202.993 83.6507 203.095 81.2757 203.152C81.7004 203.142 82.135 203.057 82.5601 203.027C83.4166 202.966 84.2755 202.953 85.1334 202.987C85.5622 203.004 85.9878 203.048 86.4158 203.075C87.8377 203.163 84.2639 202.665 86.4154 203.09C87.2593 203.257 88.093 203.475 88.912 203.743C89.3089 203.92 89.717 204.068 90.1334 204.187L89.0302 203.695C89.3008 203.817 89.569 203.944 89.8346 204.077C90.6255 204.474 91.393 204.919 92.133 205.41C92.5016 205.654 92.8542 205.92 93.2157 206.175C94.3509 206.975 91.6944 204.828 93.3043 206.29C93.8505 206.787 94.3744 207.308 94.8761 207.854C95.1772 208.182 95.47 208.517 95.7544 208.861C96.233 209.438 96.599 210.494 95.6008 208.602C96.5145 210.334 97.6565 211.904 98.517 213.689C99.2511 215.211 97.8481 211.798 98.4056 213.401C98.5559 213.833 98.7175 214.26 98.8593 214.695C99.143 215.566 99.3877 216.45 99.5936 217.345C99.7998 218.242 99.9008 219.158 100.091 220.056C99.5678 217.585 99.9503 219.014 100.002 219.685C100.049 220.296 100.077 220.908 100.087 221.521C100.098 222.285 100.08 223.05 100.033 223.814C100.005 224.262 99.908 224.737 99.9138 225.184C99.8838 222.865 100.076 224.02 99.9366 224.799C99.7759 225.701 99.5692 226.594 99.3174 227.473C99.191 227.913 99.0533 228.35 98.904 228.783C98.7714 229.167 98.6315 229.548 98.4846 229.926C98.9132 228.891 98.9474 228.792 98.5871 229.631C96.3845 234.197 93.6403 238.455 91.4739 243.037C86.0997 254.462 84.2922 267.339 86.3028 279.877C86.8563 281.957 88.1717 283.73 89.9683 284.819C91.8309 285.925 94.0398 286.225 96.1143 285.652C100.61 284.144 102.378 280.075 101.685 275.481C101.441 273.863 101.813 276.924 101.654 275.295C101.585 274.596 101.517 273.899 101.469 273.198C101.374 271.797 101.335 270.394 101.353 268.989C101.368 267.785 101.423 266.583 101.52 265.383C101.523 264.68 101.593 263.978 101.73 263.288C101.728 263.293 101.473 264.951 101.646 263.996C101.718 263.603 101.769 263.204 101.837 262.809C102.296 260.142 102.958 257.516 103.818 254.958C104.009 254.39 104.219 253.829 104.42 253.264C104.953 251.775 103.867 254.46 104.51 253.018C105.084 251.732 105.679 250.463 106.332 249.218C109.078 243.989 112.184 239.09 114.184 233.466C115.71 229.054 116.313 224.357 115.954 219.685C115.214 210.042 111.27 200.258 103.918 194.015C100.12 190.737 95.6282 188.435 90.8092 187.297C85.9902 186.158 80.98 186.216 76.1864 187.464C70.9261 188.783 66.057 191.416 62.0043 195.134C57.9515 198.851 54.8383 203.541 52.9363 208.793C51.4629 212.849 54.5708 218.035 58.5071 218.964C63.0444 220.035 66.741 217.532 68.3186 213.189V213.189Z" fill="#D0CDE1"/>
<path d="M96.1849 311.697C97.4962 311.697 98.778 311.294 99.8683 310.539C100.959 309.783 101.808 308.71 102.31 307.454C102.812 306.198 102.943 304.817 102.687 303.483C102.432 302.15 101.8 300.926 100.873 299.964C99.9458 299.003 98.7644 298.349 97.4783 298.083C96.1922 297.818 94.8592 297.954 93.6477 298.475C92.4363 298.995 91.4008 299.876 90.6722 301.006C89.9437 302.136 89.5549 303.465 89.5549 304.824C89.5743 306.641 90.2791 308.377 91.5183 309.662C92.7574 310.946 94.4325 311.677 96.1849 311.697Z" fill="#D0CDE1"/>
<path d="M206.055 343.816L200.738 360.352C200.738 360.352 167.504 400.314 191.432 405.826C215.361 411.338 218.019 363.108 218.019 363.108L224.666 349.328L206.055 343.816Z" fill="#FFB8B8"/>
<path d="M243.277 144.003C243.277 144.003 235.301 142.625 232.642 175.697C229.983 208.77 228.654 266.647 228.654 266.647L198.079 347.95L236.63 360.352L255.241 268.025L243.277 144.003Z" fill="#575A89"/>
<path d="M225.996 635.955L222.008 662.138H257.9L256.571 635.955H225.996Z" fill="#FFB8B8"/>
<path d="M341.649 664.894L338.99 700.723L362.918 703.479V662.138L341.649 664.894Z" fill="#FFB8B8"/>
<path d="M240.618 294.207L210.043 476.105L218.019 641.467H259.229V491.264L299.11 414.094L331.014 510.556L338.99 671.784L384.188 663.516L373.553 506.422C373.553 506.422 365.577 296.963 357.601 294.207C349.625 291.451 240.618 294.207 240.618 294.207Z" fill="#2F2E41"/>
<path d="M229.983 653.87C229.983 653.87 229.984 640.089 219.349 648.358C208.714 656.626 195.42 671.784 195.42 671.784C195.42 671.784 144.905 700.722 180.798 704.856C216.69 708.99 239.289 685.564 239.289 685.564L243.277 689.698C243.277 689.698 264.547 685.564 264.547 680.052C264.393 675.434 263.949 670.83 263.217 666.272C263.217 666.272 260.421 642.897 257.167 647.695C253.912 652.492 235.301 662.138 229.983 653.87Z" fill="#2F2E41"/>
<path d="M364.248 692.454C364.248 692.454 340.32 680.052 335.002 691.076C329.685 702.1 325.697 724.149 325.697 724.149C325.697 724.149 308.415 758.599 338.99 755.843C369.565 753.087 368.236 735.173 368.236 731.039C368.236 726.905 366.907 717.259 368.236 713.125C369.565 708.991 364.248 692.454 364.248 692.454Z" fill="#2F2E41"/>
<path d="M311.739 89.5712C332.296 89.5712 348.96 72.2963 348.96 50.9867C348.96 29.677 332.296 12.4022 311.739 12.4022C291.182 12.4022 274.517 29.677 274.517 50.9867C274.517 72.2963 291.182 89.5712 311.739 89.5712Z" fill="#FFB8B8"/>
<path d="M287.145 69.5898L285.816 119.198L333.672 115.064V69.5898H287.145Z" fill="#FFB8B8"/>
<path d="M336.332 90.2602C336.332 90.2602 313.733 105.418 307.086 108.174C300.439 110.93 285.816 97.1503 285.816 97.1503C285.816 97.1503 281.828 99.9063 281.828 102.662C281.828 105.418 279.169 116.443 279.169 116.443L247.265 225.306L249.924 302.475C249.924 302.475 346.966 312.121 357.601 299.719C368.236 287.317 352.284 109.552 352.284 109.552L336.332 90.2602Z" fill="#D0CDE1"/>
<path opacity="0.1" d="M329.685 119.199C329.685 119.199 293.792 132.979 281.828 120.577C281.828 120.577 299.11 124.711 329.685 119.199Z" fill="black"/>
<path d="M424.069 418.229C409.446 427.875 361.589 440.277 361.589 440.277C361.589 440.277 356.365 323.628 337.661 305.231C319.063 286.917 288.701 154.889 316.006 131.931C316.128 131.813 316.256 131.703 316.391 131.601L333.673 90.2602C333.673 90.2602 336.331 86.1261 341.649 91.6382C345.95 96.4162 349.947 101.48 353.613 106.796L354.371 107.113L390.835 121.955L376.212 189.477C376.212 189.477 438.691 408.582 424.069 418.229Z" fill="#575A89"/>
<path opacity="0.1" d="M354.371 107.113L344.308 145.381L316.006 131.931C316.128 131.813 316.256 131.703 316.391 131.601L333.673 90.2602C333.673 90.2602 336.331 86.1261 341.649 91.6382C345.95 96.4162 349.947 101.48 353.613 106.796L354.371 107.113Z" fill="black"/>
<path d="M285.152 96.4613L281.164 143.314L280.951 145.45L250.588 445.1C250.588 445.1 224.001 435.454 214.696 424.43C205.391 413.406 235.966 290.762 235.966 290.762L238.624 136.424C238.624 136.424 262.207 119.212 271.845 109.759C274.105 107.554 275.594 105.777 275.846 104.729C277.175 99.2173 285.152 96.4613 285.152 96.4613Z" fill="#575A89"/>
<path opacity="0.1" d="M285.152 96.4613L281.163 143.314L280.951 145.45L261.888 142.625L271.845 109.759C274.105 107.554 275.594 105.777 275.846 104.729C277.175 99.2173 285.152 96.4613 285.152 96.4613Z" fill="black"/>
<path d="M356.272 328.657L341.649 342.438C341.649 342.438 348.296 371.376 356.272 372.754C356.272 372.754 361.589 364.486 362.919 357.596C364.248 350.706 376.212 343.816 376.212 343.816L356.272 328.657Z" fill="#FFB8B8"/>
<path d="M373.553 119.199L390.835 121.955C390.835 121.955 447.997 222.55 441.35 258.378C434.703 294.207 381.529 356.218 381.529 356.218L348.296 328.657L397.482 259.757L372.224 177.075L373.553 119.199Z" fill="#575A89"/>
<path d="M274.433 55.3205C274.433 55.3205 274.433 21.293 282.41 13.5595H291.982C291.982 13.5595 303.15 -3.45426 317.508 2.73256C331.866 8.91938 355.797 19.7463 354.202 36.7601C352.606 53.7738 347.631 64.7669 347.631 64.7669C347.631 64.7669 344.972 64.7669 339.046 55.5177C331.127 43.1584 349.416 47.0109 325.485 42.3708C301.555 37.7306 287.196 31.5438 284.005 37.7306C280.815 43.9175 274.433 55.3205 274.433 55.3205Z" fill="#2F2E41"/>
<path d="M291.824 15.8686C291.824 15.8686 293.099 5.92394 298.347 3.78265L291.824 15.8686Z" fill="#2F2E41"/>
<path d="M291.801 17.9144C291.801 17.9144 289.138 8.26945 293.125 4.13354L291.801 17.9144Z" fill="#2F2E41"/>
</g>
<defs>
<clipPath id="clip0_11_1272">
<rect width="442" height="756" fill="white"/>
</clipPath>
</defs>
</svg>
