<svg width="50" height="48" viewBox="0 0 50 48" fill="none" xmlns="http://www.w3.org/2000/svg">
<g clip-path="url(#clip0_11_1395)">
<path d="M3.12504 3.26597C-0.804128 7.18397 3.87281e-05 11.346 3.87281e-05 23.99C3.87281e-05 34.49 -1.90829 45.016 8.07921 47.494C11.198 48.264 38.8313 48.264 41.9459 47.49C46.1042 46.46 49.4875 43.222 49.95 37.576C50.0146 36.788 50.0146 11.206 49.948 10.402C49.4563 4.38797 45.6 0.921971 40.5188 0.219971C39.3542 0.0579707 39.1209 0.00997072 33.1459 -2.92808e-05C11.9521 0.00997072 7.30629 -0.896029 3.12504 3.26597Z" fill="url(#paint0_linear_11_1395)"/>
<path d="M24.9958 6.27797C17.4312 6.27797 10.2479 5.63197 7.50416 12.392C6.37082 15.184 6.53541 18.81 6.53541 24.002C6.53541 28.558 6.38332 32.84 7.50416 35.61C10.2417 42.374 17.4833 41.726 24.9917 41.726C32.2354 41.726 39.7042 42.45 42.4812 35.61C43.6167 32.79 43.45 29.218 43.45 24.002C43.45 17.078 43.8479 12.608 40.35 9.25197C36.8083 5.85197 32.0187 6.27797 24.9875 6.27797H24.9958ZM23.3417 9.47197C39.1208 9.44797 41.1292 7.76397 40.0208 31.158C39.6271 39.432 33.0646 38.524 24.9979 38.524C10.2896 38.524 9.86666 38.12 9.86666 23.994C9.86666 9.70397 11.0333 9.47997 23.3417 9.46797V9.47197ZM34.85 12.414C33.6271 12.414 32.6354 13.366 32.6354 14.54C32.6354 15.714 33.6271 16.666 34.85 16.666C36.0729 16.666 37.0646 15.714 37.0646 14.54C37.0646 13.366 36.0729 12.414 34.85 12.414ZM24.9958 14.9C19.7604 14.9 15.5167 18.976 15.5167 24.002C15.5167 29.028 19.7604 33.102 24.9958 33.102C30.2312 33.102 34.4729 29.028 34.4729 24.002C34.4729 18.976 30.2312 14.9 24.9958 14.9ZM24.9958 18.094C33.1312 18.094 33.1417 29.91 24.9958 29.91C16.8625 29.91 16.85 18.094 24.9958 18.094Z" fill="white"/>
</g>
<defs>
<linearGradient id="paint0_linear_11_1395" x1="3.22091" y1="44.9342" x2="48.0571" y2="4.51205" gradientUnits="userSpaceOnUse">
<stop stop-color="#FFDD55"/>
<stop offset="0.5" stop-color="#FF543E"/>
<stop offset="1" stop-color="#C837AB"/>
</linearGradient>
<clipPath id="clip0_11_1395">
<rect width="50" height="48" fill="white"/>
</clipPath>
</defs>
</svg>
