<svg width="57" height="57" viewBox="0 0 57 57" fill="none" xmlns="http://www.w3.org/2000/svg">
<path d="M28.5 57C44.2401 57 57 44.2401 57 28.5C57 12.7599 44.2401 0 28.5 0C12.7599 0 0 12.7599 0 28.5C0 44.2401 12.7599 57 28.5 57Z" fill="#4AB8A1"/>
<path d="M56.0982 35.6406L48.0937 15.5859C48.0937 15.0961 47.693 14.6953 47.2031 14.6953H46.7578V14.4891C46.6135 14.4602 46.4652 14.4295 46.3125 14.397V14.2607V14.0327V13.8047C44.0859 13.3594 40.9892 12.4688 36.0703 12.4688C31.1514 12.4688 28.9453 13.3594 28.5 13.8047C28.4675 13.7717 28.4216 13.7361 28.3695 13.6991C28.3557 13.6894 28.3392 13.6791 28.3232 13.6689C28.2773 13.639 28.2257 13.6079 28.1678 13.5762C28.1504 13.5669 28.1344 13.5575 28.1152 13.5477C27.8645 13.4164 27.5047 13.2734 27.0282 13.1349C27.0256 13.1345 27.0238 13.134 27.022 13.1336C26.5304 12.9911 25.9105 12.8553 25.1521 12.7431C24.0513 12.5801 22.6624 12.4688 20.9297 12.4688C16.0108 12.4688 12.9141 13.3594 10.6875 13.8047V14.0327V14.2607V14.6953H9.79687C9.30703 14.6953 8.90625 15.0961 8.90625 15.5859V15.8139V16.0419V40.5234V40.7514V40.9794V41.4141V41.6421V41.8594L13.261 52.578C17.67 55.3746 22.8931 57 28.5 57C41.7752 57 52.9285 47.925 56.0982 35.6406Z" fill="#43A691"/>
<path d="M47.2031 14.6953H9.79688C9.30703 14.6953 8.90625 15.0961 8.90625 15.5859V41.4141C8.90625 41.9039 9.30703 42.3047 9.79688 42.3047H25.3828C25.3828 43.2884 26.7789 44.0859 28.5 44.0859C30.2211 44.0859 31.6172 43.2884 31.6172 42.3047H47.2031C47.693 42.3047 48.0938 41.9039 48.0938 41.4141V15.5859C48.0938 15.0961 47.693 14.6953 47.2031 14.6953Z" fill="#CC584C"/>
<path d="M47.2031 14.6953H29.3906V40.9688H47.2031V14.6953Z" fill="#BF5347"/>
<path d="M47.2031 41.4141H31.6172C31.6172 42.3978 30.2211 43.1953 28.5 43.1953C26.7789 43.1953 25.3828 42.3978 25.3828 41.4141H9.79688C9.30703 41.4141 8.90625 41.0133 8.90625 40.5234V41.4141C8.90625 41.9039 9.30703 42.3047 9.79688 42.3047H25.3828C25.3828 43.2884 26.7789 44.0859 28.5 44.0859C30.2211 44.0859 31.6172 43.2884 31.6172 42.3047H47.2031C47.693 42.3047 48.0938 41.9039 48.0938 41.4141V40.5234C48.0938 41.0133 47.693 41.4141 47.2031 41.4141Z" fill="#994239"/>
<path d="M20.9297 12.4688C16.0108 12.4688 12.9141 13.3594 10.6875 13.8047V40.5234H28.5V13.8047C28.0547 13.3594 25.8486 12.4688 20.9297 12.4688Z" fill="#FFF8E6"/>
<path d="M28.5 40.5234C28.5 39.2939 25.8486 38.2969 20.9297 38.2969C16.0108 38.2969 11.5781 39.6328 10.6875 40.5234H28.5Z" fill="#E6DBC3"/>
<path d="M36.0703 12.4688C40.9892 12.4688 44.0859 13.3594 46.3125 13.8047V40.5234H28.5V13.8047C28.9453 13.3594 31.1514 12.4688 36.0703 12.4688Z" fill="#FFF8E6"/>
<path d="M28.5 40.5234C28.5 39.2939 31.1514 38.2969 36.0703 38.2969C40.9892 38.2969 45.4219 39.6328 46.3125 40.5234H28.5Z" fill="#E6DBC3"/>
<path d="M28.5 37.8516V13.8047C28.2123 13.5161 27.177 13.0419 25.1522 12.7431L28.5 37.8516Z" fill="#F2E7CE"/>
<path d="M29.3906 40.5234H11.1328V40.9688H29.3906V40.5234Z" fill="#BF5347"/>
<path d="M44.5312 18.2578C39.7811 18.2578 35.0314 18.2578 30.2812 18.2578C30.2812 17.0109 30.2812 16.3875 30.2812 15.1406C35.4834 14.336 39.3291 14.3355 44.5312 15.1406C44.5312 16.3875 44.5312 17.0109 44.5312 18.2578Z" fill="#F2E7CE"/>
<path d="M44.5312 20.4844H32.5078V21.375H44.5312V20.4844Z" fill="#F2E7CE"/>
<path d="M44.5312 22.2656H30.2812V23.1562H44.5312V22.2656Z" fill="#F2E7CE"/>
<path d="M44.5312 24.0469H30.2812V24.9375H44.5312V24.0469Z" fill="#F2E7CE"/>
<path d="M44.5312 25.8281H30.2812V26.7188H44.5312V25.8281Z" fill="#F2E7CE"/>
<path d="M44.5312 27.6094H30.2812V28.5H44.5312V27.6094Z" fill="#F2E7CE"/>
<path d="M44.5312 29.3906H30.2812V30.2812H44.5312V29.3906Z" fill="#F2E7CE"/>
<path d="M44.5312 31.1719H30.2812V32.0625H44.5312V31.1719Z" fill="#F2E7CE"/>
<path d="M44.5312 32.9531H30.2812V33.8438H44.5312V32.9531Z" fill="#F2E7CE"/>
<path d="M42.3047 34.7344H30.2812V35.625H42.3047V34.7344Z" fill="#F2E7CE"/>
<path d="M27.1641 15.5859H15.1406V16.4766H27.1641V15.5859Z" fill="#F2E7CE"/>
<path d="M27.1641 17.3672H12.9141V18.2578H27.1641V17.3672Z" fill="#F2E7CE"/>
<path d="M27.1641 19.1484H12.9141V20.0391H27.1641V19.1484Z" fill="#F2E7CE"/>
<path d="M27.1641 20.9297H12.9141V21.8203H27.1641V20.9297Z" fill="#F2E7CE"/>
<path d="M27.1641 22.7109H12.9141V23.6016H27.1641V22.7109Z" fill="#F2E7CE"/>
<path d="M27.1641 24.4922H12.9141V25.3828H27.1641V24.4922Z" fill="#F2E7CE"/>
<path d="M27.1641 26.2734H12.9141V27.1641H27.1641V26.2734Z" fill="#F2E7CE"/>
<path d="M27.1641 28.0547H12.9141V28.9453H27.1641V28.0547Z" fill="#F2E7CE"/>
<path d="M24.9375 29.8359H12.9141V30.7266H24.9375V29.8359Z" fill="#F2E7CE"/>
</svg>
