<svg width="274" height="92" viewBox="0 0 274 92" fill="none" xmlns="http://www.w3.org/2000/svg">
<rect width="274" height="92" rx="46" fill="white"/>
<path d="M54.5 74C70.2401 74 83 61.2401 83 45.5C83 29.7599 70.2401 17 54.5 17C38.7599 17 26 29.7599 26 45.5C26 61.2401 38.7599 74 54.5 74Z" fill="#4AB8A1"/>
<path d="M82.0982 52.6406L74.0937 32.5859C74.0937 32.0961 73.693 31.6953 73.2031 31.6953H72.7578V31.4891C72.6135 31.4602 72.4652 31.4295 72.3125 31.397V31.2607V31.0327V30.8047C70.0859 30.3594 66.9892 29.4688 62.0703 29.4688C57.1514 29.4688 54.9453 30.3594 54.5 30.8047C54.4675 30.7717 54.4216 30.7361 54.3695 30.6991C54.3557 30.6894 54.3392 30.6791 54.3232 30.6689C54.2773 30.639 54.2257 30.6079 54.1678 30.5762C54.1504 30.5669 54.1344 30.5575 54.1152 30.5477C53.8645 30.4164 53.5047 30.2734 53.0282 30.1349C53.0256 30.1345 53.0238 30.134 53.022 30.1336C52.5304 29.9911 51.9105 29.8553 51.1521 29.7431C50.0513 29.5801 48.6624 29.4688 46.9297 29.4688C42.0108 29.4688 38.9141 30.3594 36.6875 30.8047V31.0327V31.2607V31.6953H35.7969C35.307 31.6953 34.9062 32.0961 34.9062 32.5859V32.8139V33.0419V57.5234V57.7514V57.9794V58.4141V58.6421V58.8594L39.261 69.578C43.67 72.3746 48.8931 74 54.5 74C67.7752 74 78.9285 64.925 82.0982 52.6406Z" fill="#43A691"/>
<path d="M73.2031 31.6953H35.7969C35.307 31.6953 34.9062 32.0961 34.9062 32.5859V58.4141C34.9062 58.9039 35.307 59.3047 35.7969 59.3047H51.3828C51.3828 60.2884 52.7789 61.0859 54.5 61.0859C56.2211 61.0859 57.6172 60.2884 57.6172 59.3047H73.2031C73.693 59.3047 74.0938 58.9039 74.0938 58.4141V32.5859C74.0938 32.0961 73.693 31.6953 73.2031 31.6953Z" fill="#CC584C"/>
<path d="M73.2031 31.6953H55.3906V57.9688H73.2031V31.6953Z" fill="#BF5347"/>
<path d="M73.2031 58.4141H57.6172C57.6172 59.3978 56.2211 60.1953 54.5 60.1953C52.7789 60.1953 51.3828 59.3978 51.3828 58.4141H35.7969C35.307 58.4141 34.9062 58.0133 34.9062 57.5234V58.4141C34.9062 58.9039 35.307 59.3047 35.7969 59.3047H51.3828C51.3828 60.2884 52.7789 61.0859 54.5 61.0859C56.2211 61.0859 57.6172 60.2884 57.6172 59.3047H73.2031C73.693 59.3047 74.0938 58.9039 74.0938 58.4141V57.5234C74.0938 58.0133 73.693 58.4141 73.2031 58.4141Z" fill="#994239"/>
<path d="M46.9297 29.4688C42.0108 29.4688 38.9141 30.3594 36.6875 30.8047V57.5234H54.5V30.8047C54.0547 30.3594 51.8486 29.4688 46.9297 29.4688Z" fill="#FFF8E6"/>
<path d="M54.5 57.5234C54.5 56.2939 51.8486 55.2969 46.9297 55.2969C42.0108 55.2969 37.5781 56.6328 36.6875 57.5234H54.5Z" fill="#E6DBC3"/>
<path d="M62.0703 29.4688C66.9892 29.4688 70.0859 30.3594 72.3125 30.8047V57.5234H54.5V30.8047C54.9453 30.3594 57.1514 29.4688 62.0703 29.4688Z" fill="#FFF8E6"/>
<path d="M54.5 57.5234C54.5 56.2939 57.1514 55.2969 62.0703 55.2969C66.9892 55.2969 71.4219 56.6328 72.3125 57.5234H54.5Z" fill="#E6DBC3"/>
<path d="M54.5 54.8517V30.8048C54.2123 30.5162 53.177 30.042 51.1522 29.7432L54.5 54.8517Z" fill="#F2E7CE"/>
<path d="M55.3906 57.5234H37.1328V57.9688H55.3906V57.5234Z" fill="#BF5347"/>
<path d="M70.5312 35.2577C65.7811 35.2577 61.0314 35.2577 56.2812 35.2577C56.2812 34.0109 56.2812 33.3874 56.2812 32.1405C61.4834 31.3359 65.3291 31.3354 70.5312 32.1405C70.5312 33.3874 70.5312 34.0109 70.5312 35.2577Z" fill="#F2E7CE"/>
<path d="M70.5312 37.4844H58.5078V38.375H70.5312V37.4844Z" fill="#F2E7CE"/>
<path d="M70.5312 39.2656H56.2812V40.1562H70.5312V39.2656Z" fill="#F2E7CE"/>
<path d="M70.5312 41.0469H56.2812V41.9375H70.5312V41.0469Z" fill="#F2E7CE"/>
<path d="M70.5312 42.8281H56.2812V43.7188H70.5312V42.8281Z" fill="#F2E7CE"/>
<path d="M70.5312 44.6094H56.2812V45.5H70.5312V44.6094Z" fill="#F2E7CE"/>
<path d="M70.5312 46.3906H56.2812V47.2812H70.5312V46.3906Z" fill="#F2E7CE"/>
<path d="M70.5312 48.1719H56.2812V49.0625H70.5312V48.1719Z" fill="#F2E7CE"/>
<path d="M70.5312 49.9531H56.2812V50.8438H70.5312V49.9531Z" fill="#F2E7CE"/>
<path d="M68.3047 51.7344H56.2812V52.625H68.3047V51.7344Z" fill="#F2E7CE"/>
<path d="M53.1641 32.5859H41.1406V33.4766H53.1641V32.5859Z" fill="#F2E7CE"/>
<path d="M53.1641 34.3672H38.9141V35.2578H53.1641V34.3672Z" fill="#F2E7CE"/>
<path d="M53.1641 36.1484H38.9141V37.0391H53.1641V36.1484Z" fill="#F2E7CE"/>
<path d="M53.1641 37.9297H38.9141V38.8203H53.1641V37.9297Z" fill="#F2E7CE"/>
<path d="M53.1641 39.7109H38.9141V40.6016H53.1641V39.7109Z" fill="#F2E7CE"/>
<path d="M53.1641 41.4922H38.9141V42.3828H53.1641V41.4922Z" fill="#F2E7CE"/>
<path d="M53.1641 43.2734H38.9141V44.1641H53.1641V43.2734Z" fill="#F2E7CE"/>
<path d="M53.1641 45.0547H38.9141V45.9453H53.1641V45.0547Z" fill="#F2E7CE"/>
<path d="M50.9375 46.8359H38.9141V47.7266H50.9375V46.8359Z" fill="#F2E7CE"/>
<path d="M109.27 50.2422C109.27 51.7891 108.711 53.0078 107.594 53.8984C106.484 54.7891 104.938 55.2344 102.953 55.2344C101.125 55.2344 99.5078 54.8906 98.1016 54.2031V50.8281C99.2578 51.3438 100.234 51.707 101.031 51.918C101.836 52.1289 102.57 52.2344 103.234 52.2344C104.031 52.2344 104.641 52.082 105.062 51.7773C105.492 51.4727 105.707 51.0195 105.707 50.418C105.707 50.082 105.613 49.7852 105.426 49.5273C105.238 49.2617 104.961 49.0078 104.594 48.7656C104.234 48.5234 103.496 48.1367 102.379 47.6055C101.332 47.1133 100.547 46.6406 100.023 46.1875C99.5 45.7344 99.082 45.207 98.7695 44.6055C98.457 44.0039 98.3008 43.3008 98.3008 42.4961C98.3008 40.9805 98.8125 39.7891 99.8359 38.9219C100.867 38.0547 102.289 37.6211 104.102 37.6211C104.992 37.6211 105.84 37.7266 106.645 37.9375C107.457 38.1484 108.305 38.4453 109.188 38.8281L108.016 41.6523C107.102 41.2773 106.344 41.0156 105.742 40.8672C105.148 40.7188 104.562 40.6445 103.984 40.6445C103.297 40.6445 102.77 40.8047 102.402 41.125C102.035 41.4453 101.852 41.8633 101.852 42.3789C101.852 42.6992 101.926 42.9805 102.074 43.2227C102.223 43.457 102.457 43.6875 102.777 43.9141C103.105 44.1328 103.875 44.5312 105.086 45.1094C106.688 45.875 107.785 46.6445 108.379 47.418C108.973 48.1836 109.27 49.125 109.27 50.2422ZM117.613 52.3867C118.238 52.3867 118.988 52.25 119.863 51.9766V54.6367C118.973 55.0352 117.879 55.2344 116.582 55.2344C115.152 55.2344 114.109 54.875 113.453 54.1562C112.805 53.4297 112.48 52.3438 112.48 50.8984V44.582H110.77V43.0703L112.738 41.875L113.77 39.1094H116.055V41.8984H119.723V44.582H116.055V50.8984C116.055 51.4062 116.195 51.7812 116.477 52.0234C116.766 52.2656 117.145 52.3867 117.613 52.3867ZM131.805 55L131.324 53.3242H131.137C130.754 53.9336 130.211 54.4062 129.508 54.7422C128.805 55.0703 128.004 55.2344 127.105 55.2344C125.566 55.2344 124.406 54.8242 123.625 54.0039C122.844 53.1758 122.453 51.9883 122.453 50.4414V41.8984H126.027V49.5508C126.027 50.4961 126.195 51.207 126.531 51.6836C126.867 52.1523 127.402 52.3867 128.137 52.3867C129.137 52.3867 129.859 52.0547 130.305 51.3906C130.75 50.7188 130.973 49.6094 130.973 48.0625V41.8984H134.547V55H131.805ZM142.445 55.2344C140.906 55.2344 139.695 54.6367 138.812 53.4414C137.938 52.2461 137.5 50.5898 137.5 48.4727C137.5 46.3242 137.945 44.6523 138.836 43.457C139.734 42.2539 140.969 41.6523 142.539 41.6523C144.188 41.6523 145.445 42.293 146.312 43.5742H146.43C146.25 42.5977 146.16 41.7266 146.16 40.9609V36.7656H149.746V55H147.004L146.312 53.3008H146.16C145.348 54.5898 144.109 55.2344 142.445 55.2344ZM143.699 52.3867C144.613 52.3867 145.281 52.1211 145.703 51.5898C146.133 51.0586 146.367 50.1562 146.406 48.8828V48.4961C146.406 47.0898 146.188 46.082 145.75 45.4727C145.32 44.8633 144.617 44.5586 143.641 44.5586C142.844 44.5586 142.223 44.8984 141.777 45.5781C141.34 46.25 141.121 47.2305 141.121 48.5195C141.121 49.8086 141.344 50.7773 141.789 51.4258C142.234 52.0664 142.871 52.3867 143.699 52.3867ZM158.91 44.1953C158.152 44.1953 157.559 44.4375 157.129 44.9219C156.699 45.3984 156.453 46.0781 156.391 46.9609H161.406C161.391 46.0781 161.16 45.3984 160.715 44.9219C160.27 44.4375 159.668 44.1953 158.91 44.1953ZM159.414 55.2344C157.305 55.2344 155.656 54.6523 154.469 53.4883C153.281 52.3242 152.688 50.6758 152.688 48.543C152.688 46.3477 153.234 44.6523 154.328 43.457C155.43 42.2539 156.949 41.6523 158.887 41.6523C160.738 41.6523 162.18 42.1797 163.211 43.2344C164.242 44.2891 164.758 45.7461 164.758 47.6055V49.3398H156.309C156.348 50.3555 156.648 51.1484 157.211 51.7188C157.773 52.2891 158.562 52.5742 159.578 52.5742C160.367 52.5742 161.113 52.4922 161.816 52.3281C162.52 52.1641 163.254 51.9023 164.02 51.543V54.3086C163.395 54.6211 162.727 54.8516 162.016 55C161.305 55.1562 160.438 55.2344 159.414 55.2344ZM179.758 55H176.184V47.3477C176.184 46.4023 176.016 45.6953 175.68 45.2266C175.344 44.75 174.809 44.5117 174.074 44.5117C173.074 44.5117 172.352 44.8477 171.906 45.5195C171.461 46.1836 171.238 47.2891 171.238 48.8359V55H167.664V41.8984H170.395L170.875 43.5742H171.074C171.473 42.9414 172.02 42.4648 172.715 42.1445C173.418 41.8164 174.215 41.6523 175.105 41.6523C176.629 41.6523 177.785 42.0664 178.574 42.8945C179.363 43.7148 179.758 44.9023 179.758 46.457V55ZM188.957 52.3867C189.582 52.3867 190.332 52.25 191.207 51.9766V54.6367C190.316 55.0352 189.223 55.2344 187.926 55.2344C186.496 55.2344 185.453 54.875 184.797 54.1562C184.148 53.4297 183.824 52.3438 183.824 50.8984V44.582H182.113V43.0703L184.082 41.875L185.113 39.1094H187.398V41.8984H191.066V44.582H187.398V50.8984C187.398 51.4062 187.539 51.7812 187.82 52.0234C188.109 52.2656 188.488 52.3867 188.957 52.3867ZM214.422 55H210.801V47.6055H204.016V55H200.383V37.8672H204.016V44.582H210.801V37.8672H214.422V55ZM227.758 55L227.277 53.3242H227.09C226.707 53.9336 226.164 54.4062 225.461 54.7422C224.758 55.0703 223.957 55.2344 223.059 55.2344C221.52 55.2344 220.359 54.8242 219.578 54.0039C218.797 53.1758 218.406 51.9883 218.406 50.4414V41.8984H221.98V49.5508C221.98 50.4961 222.148 51.207 222.484 51.6836C222.82 52.1523 223.355 52.3867 224.09 52.3867C225.09 52.3867 225.812 52.0547 226.258 51.3906C226.703 50.7188 226.926 49.6094 226.926 48.0625V41.8984H230.5V55H227.758ZM241.539 41.6523C243.086 41.6523 244.297 42.2578 245.172 43.4688C246.047 44.6719 246.484 46.3242 246.484 48.4258C246.484 50.5898 246.031 52.2656 245.125 53.4531C244.227 54.6406 243 55.2344 241.445 55.2344C239.906 55.2344 238.699 54.6758 237.824 53.5586H237.578L236.98 55H234.25V36.7656H237.824V41.0078C237.824 41.5469 237.777 42.4102 237.684 43.5977H237.824C238.66 42.3008 239.898 41.6523 241.539 41.6523ZM240.391 44.5117C239.508 44.5117 238.863 44.7852 238.457 45.332C238.051 45.8711 237.84 46.7656 237.824 48.0156V48.4023C237.824 49.8086 238.031 50.8164 238.445 51.4258C238.867 52.0352 239.531 52.3398 240.438 52.3398C241.172 52.3398 241.754 52.0039 242.184 51.332C242.621 50.6523 242.84 49.668 242.84 48.3789C242.84 47.0898 242.621 46.125 242.184 45.4844C241.746 44.8359 241.148 44.5117 240.391 44.5117Z" fill="#43A691"/>
</svg>
