<svg width="49" height="48" viewBox="0 0 49 48" fill="none" xmlns="http://www.w3.org/2000/svg">
<path d="M24.5061 0H24.4939C10.9852 0 0 10.764 0 24C0 29.25 1.72725 34.116 4.66419 38.067L1.61088 46.983L11.0281 44.034C14.9021 46.548 19.5234 48 24.5061 48C38.0148 48 49 37.233 49 24C49 10.767 38.0148 0 24.5061 0Z" fill="#4CAF50"/>
<path d="M38.7621 33.891C38.171 35.526 35.8251 36.882 33.9539 37.278C32.6738 37.545 31.0017 37.758 25.3728 35.472C18.1729 32.5501 13.5363 25.383 13.1749 24.918C12.8288 24.453 10.2655 21.123 10.2655 17.6791C10.2655 14.2351 12.0509 12.5581 12.7706 11.8381C13.3617 11.2471 14.3386 10.9771 15.2758 10.9771C15.5789 10.9771 15.8515 10.9921 16.0965 11.0041C16.8162 11.0341 17.1776 11.0761 17.6523 12.1891C18.2433 13.5841 19.6827 17.0281 19.8542 17.3821C20.0288 17.7361 20.2033 18.2161 19.9583 18.6811C19.7286 19.1611 19.5265 19.374 19.1651 19.782C18.8038 20.19 18.4608 20.502 18.0994 20.94C17.7686 21.321 17.395 21.729 17.8115 22.434C18.228 23.124 19.6674 25.425 21.7866 27.273C24.5214 29.658 26.7387 30.42 27.5319 30.744C28.1229 30.984 28.8273 30.927 29.2591 30.477C29.8073 29.898 30.4841 28.938 31.1732 27.993C31.6632 27.3151 32.2818 27.231 32.9311 27.471C33.5926 27.696 37.093 29.391 37.8127 29.742C38.5324 30.096 39.0071 30.264 39.1816 30.561C39.3531 30.858 39.3531 32.253 38.7621 33.891Z" fill="#FAFAFA"/>
</svg>
